# MagicaVoxel @ Ephtracy

# group
o 

# material
mtllib cool.mtl
usemtl palette

# normals
vn -1 0 0
vn 1 0 0
vn 0 0 1
vn 0 0 -1
vn 0 -1 0
vn 0 1 0

# texcoords
vt 0.962891 0.5
vt 0.994141 0.5

# verts
v -0.6 0.1 0.4
v -0.6 0.1 0.3
v -0.6 0.2 0.4
v -0.6 0.2 0.3
v -0.5 0 0.4
v -0.5 0 0.3
v -0.5 0 -0.3
v -0.5 0 -0.4
v -0.5 0.1 0.4
v -0.5 0.1 0.3
v -0.5 0.1 -0.3
v -0.5 0.1 -0.4
v -0.5 0.2 0.3
v -0.5 0.2 -0.3
v 0.1 0 0.4
v 0.1 0 0.3
v 0.1 0.1 0.4
v 0.1 0.1 0.3
v 0.4 0 -0.3
v 0.4 0 -0.4
v 0.4 0.1 0.3
v 0.4 0.1 -0.3
v 0.4 0.1 -0.4
v 0.4 0.2 0.3
v 0.4 0.2 -0.3
v -0.4 0 -0.3
v -0.4 0 -0.4
v -0.4 0.1 0.3
v -0.4 0.1 -0.3
v -0.4 0.1 -0.4
v -0.4 0.2 0.3
v -0.4 0.2 -0.3
v -0.1 0 0.4
v -0.1 0 0.3
v -0.1 0.1 0.4
v -0.1 0.1 0.3
v 0.5 0 0.4
v 0.5 0 0.3
v 0.5 0 -0.3
v 0.5 0 -0.4
v 0.5 0.1 0.4
v 0.5 0.1 0.3
v 0.5 0.1 -0.3
v 0.5 0.1 -0.4
v 0.5 0.2 0.3
v 0.5 0.2 -0.3
v 0.6 0.1 0.4
v 0.6 0.1 0.3
v 0.6 0.2 0.4
v 0.6 0.2 0.3
v -0.6 0.1 0.4
v -0.6 0.2 0.4
v -0.5 0 0.4
v -0.5 0.1 0.4
v -0.4 0.1 0.4
v -0.4 0.2 0.4
v -0.3 0 0.4
v -0.3 0.1 0.4
v -0.3 0.2 0.4
v -0.2 0 0.4
v -0.2 0.1 0.4
v -0.1 0 0.4
v -0.1 0.1 0.4
v 0.1 0 0.4
v 0.1 0.1 0.4
v 0.2 0.1 0.4
v 0.2 0.2 0.4
v 0.3 0 0.4
v 0.3 0.1 0.4
v 0.3 0.2 0.4
v 0.4 0 0.4
v 0.4 0.1 0.4
v 0.5 0 0.4
v 0.5 0.1 0.4
v 0.6 0.1 0.4
v 0.6 0.2 0.4
v -0.5 0 -0.3
v -0.5 0.1 -0.3
v -0.4 0 -0.3
v -0.4 0.1 -0.3
v 0.4 0 -0.3
v 0.4 0.1 -0.3
v 0.5 0 -0.3
v 0.5 0.1 -0.3
v -0.6 0.1 0.3
v -0.6 0.2 0.3
v -0.5 0 0.3
v -0.5 0.1 0.3
v -0.5 0.2 0.3
v -0.4 0.1 0.3
v -0.4 0.2 0.3
v -0.3 0 0.3
v -0.3 0.1 0.3
v -0.3 0.2 0.3
v -0.2 0 0.3
v -0.2 0.1 0.3
v -0.1 0 0.3
v -0.1 0.1 0.3
v 0.1 0 0.3
v 0.1 0.1 0.3
v 0.2 0.1 0.3
v 0.2 0.2 0.3
v 0.3 0 0.3
v 0.3 0.1 0.3
v 0.3 0.2 0.3
v 0.4 0 0.3
v 0.4 0.1 0.3
v 0.4 0.2 0.3
v 0.5 0 0.3
v 0.5 0.1 0.3
v 0.5 0.2 0.3
v 0.6 0.1 0.3
v 0.6 0.2 0.3
v -0.5 0.1 -0.3
v -0.5 0.2 -0.3
v -0.4 0.1 -0.3
v -0.4 0.2 -0.3
v 0.4 0.1 -0.3
v 0.4 0.2 -0.3
v 0.5 0.1 -0.3
v 0.5 0.2 -0.3
v -0.5 0 -0.4
v -0.5 0.1 -0.4
v -0.4 0 -0.4
v -0.4 0.1 -0.4
v 0.4 0 -0.4
v 0.4 0.1 -0.4
v 0.5 0 -0.4
v 0.5 0.1 -0.4
v -0.5 0 0.4
v -0.3 0 0.4
v -0.2 0 0.4
v -0.1 0 0.4
v 0.1 0 0.4
v 0.3 0 0.4
v 0.4 0 0.4
v 0.5 0 0.4
v -0.5 0 0.3
v -0.3 0 0.3
v -0.2 0 0.3
v -0.1 0 0.3
v 0.1 0 0.3
v 0.3 0 0.3
v 0.4 0 0.3
v 0.5 0 0.3
v -0.5 0 -0.3
v -0.4 0 -0.3
v 0.4 0 -0.3
v 0.5 0 -0.3
v -0.5 0 -0.4
v -0.4 0 -0.4
v 0.4 0 -0.4
v 0.5 0 -0.4
v -0.6 0.1 0.4
v -0.5 0.1 0.4
v -0.1 0.1 0.4
v 0.1 0.1 0.4
v 0.5 0.1 0.4
v 0.6 0.1 0.4
v -0.6 0.1 0.3
v -0.5 0.1 0.3
v -0.4 0.1 0.3
v -0.1 0.1 0.3
v 0.1 0.1 0.3
v 0.4 0.1 0.3
v 0.5 0.1 0.3
v 0.6 0.1 0.3
v -0.5 0.1 -0.3
v -0.4 0.1 -0.3
v 0.4 0.1 -0.3
v 0.5 0.1 -0.3
v -0.5 0.1 -0.3
v -0.4 0.1 -0.3
v 0.4 0.1 -0.3
v 0.5 0.1 -0.3
v -0.5 0.1 -0.4
v -0.4 0.1 -0.4
v 0.4 0.1 -0.4
v 0.5 0.1 -0.4
v -0.6 0.2 0.4
v -0.4 0.2 0.4
v -0.3 0.2 0.4
v 0.2 0.2 0.4
v 0.3 0.2 0.4
v 0.6 0.2 0.4
v -0.6 0.2 0.3
v -0.5 0.2 0.3
v -0.4 0.2 0.3
v -0.3 0.2 0.3
v 0.2 0.2 0.3
v 0.3 0.2 0.3
v 0.4 0.2 0.3
v 0.5 0.2 0.3
v 0.6 0.2 0.3
v -0.5 0.2 -0.3
v -0.4 0.2 -0.3
v 0.4 0.2 -0.3
v 0.5 0.2 -0.3

# faces
f 3/2/1 2/2/1 1/2/1
f 4/2/1 2/2/1 3/2/1
f 9/2/1 6/2/1 5/2/1
f 10/2/1 6/2/1 9/2/1
f 11/2/1 8/2/1 7/2/1
f 12/2/1 8/2/1 11/2/1
f 13/2/1 11/2/1 10/2/1
f 14/2/1 11/2/1 13/2/1
f 17/2/1 16/2/1 15/2/1
f 18/2/1 16/2/1 17/2/1
f 22/2/1 20/2/1 19/2/1
f 23/2/1 20/2/1 22/2/1
f 24/2/1 22/2/1 21/2/1
f 25/2/1 22/2/1 24/2/1
f 26/2/2 27/2/2 29/2/2
f 29/2/2 27/2/2 30/2/2
f 28/2/2 29/2/2 31/2/2
f 31/2/2 29/2/2 32/2/2
f 33/2/2 34/2/2 35/2/2
f 35/2/2 34/2/2 36/2/2
f 37/2/2 38/2/2 41/2/2
f 41/2/2 38/2/2 42/2/2
f 39/2/2 40/2/2 43/2/2
f 43/2/2 40/2/2 44/2/2
f 42/2/2 43/2/2 45/2/2
f 45/2/2 43/2/2 46/2/2
f 47/2/2 48/2/2 49/2/2
f 49/2/2 48/2/2 50/2/2
f 54/2/3 52/2/3 51/2/3
f 55/2/3 52/2/3 54/2/3
f 55/2/3 54/2/3 53/2/3
f 56/2/3 52/2/3 55/2/3
f 57/2/3 55/2/3 53/2/3
f 58/1/3 56/1/3 55/1/3
f 58/2/3 55/2/3 57/2/3
f 59/1/3 56/1/3 58/1/3
f 60/1/3 58/1/3 57/1/3
f 61/2/3 59/2/3 58/2/3
f 61/1/3 58/1/3 60/1/3
f 62/2/3 61/2/3 60/2/3
f 63/2/3 59/2/3 61/2/3
f 63/2/3 61/2/3 62/2/3
f 65/2/3 59/2/3 63/2/3
f 66/2/3 59/2/3 65/2/3
f 66/2/3 65/2/3 64/2/3
f 67/2/3 59/2/3 66/2/3
f 68/2/3 66/2/3 64/2/3
f 69/1/3 67/1/3 66/1/3
f 69/2/3 66/2/3 68/2/3
f 70/1/3 67/1/3 69/1/3
f 71/1/3 69/1/3 68/1/3
f 72/2/3 70/2/3 69/2/3
f 72/1/3 69/1/3 71/1/3
f 73/2/3 72/2/3 71/2/3
f 74/2/3 70/2/3 72/2/3
f 74/2/3 72/2/3 73/2/3
f 75/2/3 70/2/3 74/2/3
f 76/2/3 70/2/3 75/2/3
f 79/2/3 78/2/3 77/2/3
f 80/2/3 78/2/3 79/2/3
f 83/2/3 82/2/3 81/2/3
f 84/2/3 82/2/3 83/2/3
f 85/2/4 86/2/4 88/2/4
f 88/2/4 86/2/4 89/2/4
f 87/2/4 88/2/4 90/2/4
f 87/2/4 90/2/4 92/2/4
f 90/1/4 91/1/4 93/1/4
f 92/2/4 90/2/4 93/2/4
f 93/1/4 91/1/4 94/1/4
f 92/1/4 93/1/4 95/1/4
f 93/2/4 94/2/4 96/2/4
f 95/1/4 93/1/4 96/1/4
f 95/2/4 96/2/4 97/2/4
f 96/2/4 94/2/4 98/2/4
f 97/2/4 96/2/4 98/2/4
f 98/2/4 94/2/4 100/2/4
f 100/2/4 94/2/4 101/2/4
f 99/2/4 100/2/4 101/2/4
f 101/2/4 94/2/4 102/2/4
f 99/2/4 101/2/4 103/2/4
f 101/1/4 102/1/4 104/1/4
f 103/2/4 101/2/4 104/2/4
f 104/1/4 102/1/4 105/1/4
f 103/1/4 104/1/4 106/1/4
f 104/2/4 105/2/4 107/2/4
f 106/1/4 104/1/4 107/1/4
f 107/2/4 105/2/4 108/2/4
f 106/2/4 107/2/4 109/2/4
f 109/2/4 107/2/4 110/2/4
f 110/2/4 111/2/4 112/2/4
f 112/2/4 111/2/4 113/2/4
f 114/2/4 115/2/4 116/2/4
f 116/2/4 115/2/4 117/2/4
f 118/2/4 119/2/4 120/2/4
f 120/2/4 119/2/4 121/2/4
f 122/2/4 123/2/4 124/2/4
f 124/2/4 123/2/4 125/2/4
f 126/2/4 127/2/4 128/2/4
f 128/2/4 127/2/4 129/2/4
f 138/2/5 131/2/5 130/2/5
f 139/1/5 132/1/5 131/1/5
f 139/2/5 131/2/5 138/2/5
f 140/2/5 133/2/5 132/2/5
f 140/1/5 132/1/5 139/1/5
f 141/2/5 133/2/5 140/2/5
f 142/2/5 135/2/5 134/2/5
f 143/1/5 136/1/5 135/1/5
f 143/2/5 135/2/5 142/2/5
f 144/2/5 137/2/5 136/2/5
f 144/1/5 136/1/5 143/1/5
f 145/2/5 137/2/5 144/2/5
f 150/2/5 147/2/5 146/2/5
f 151/2/5 147/2/5 150/2/5
f 152/2/5 149/2/5 148/2/5
f 153/2/5 149/2/5 152/2/5
f 160/2/5 155/2/5 154/2/5
f 161/2/5 155/2/5 160/2/5
f 163/2/5 157/2/5 156/2/5
f 164/2/5 157/2/5 163/2/5
f 166/2/5 159/2/5 158/2/5
f 167/2/5 159/2/5 166/2/5
f 168/2/5 162/2/5 161/2/5
f 169/2/5 162/2/5 168/2/5
f 170/2/5 166/2/5 165/2/5
f 171/2/5 166/2/5 170/2/5
f 172/2/6 173/2/6 176/2/6
f 176/2/6 173/2/6 177/2/6
f 174/2/6 175/2/6 178/2/6
f 178/2/6 175/2/6 179/2/6
f 180/2/6 181/2/6 186/2/6
f 186/2/6 181/2/6 187/2/6
f 181/1/6 182/1/6 188/1/6
f 187/2/6 181/2/6 188/2/6
f 182/2/6 183/2/6 189/2/6
f 188/1/6 182/1/6 189/1/6
f 183/1/6 184/1/6 190/1/6
f 189/2/6 183/2/6 190/2/6
f 184/2/6 185/2/6 191/2/6
f 190/1/6 184/1/6 191/1/6
f 191/2/6 185/2/6 192/2/6
f 192/2/6 185/2/6 193/2/6
f 193/2/6 185/2/6 194/2/6
f 187/2/6 188/2/6 195/2/6
f 195/2/6 188/2/6 196/2/6
f 192/2/6 193/2/6 197/2/6
f 197/2/6 193/2/6 198/2/6
